<?xml version="1.0" encoding="UTF-8"?>
<!DOCTYPE svg PUBLIC "-//W3C//DTD SVG 1.1//EN" "http://www.w3.org/Graphics/SVG/1.1/DTD/svg11.dtd">
<!-- Creator: CorelDRAW -->
<svg xmlns="http://www.w3.org/2000/svg" xml:space="preserve" width="6.82666in" height="6.82666in" style="shape-rendering:geometricPrecision; text-rendering:geometricPrecision; image-rendering:optimizeQuality; fill-rule:evenodd; clip-rule:evenodd"
viewBox="0 0 6.82666 6.82666"
 xmlns:xlink="http://www.w3.org/1999/xlink">
 <defs>
  <style type="text/css">
   <![CDATA[
    .fil0 {fill:#424242}
    .fil1 {fill:#FFFFFE}
   ]]>
  </style>
 </defs>
 <rect class="fil0" width="6.82666" height="6.82666"/>
 <g id="Layer_x0020_1">
  <metadata id="CorelCorpID_0Corel-Layer"/>
  <g id="_501802424">
   <path id="_501802256" class="fil1" d="M1.10107 0.853331l4.62453 0c0.136252,0 0.247736,0.111484 0.247736,0.247736l0 4.62453c0,0.136252 -0.111484,0.247736 -0.247736,0.247736l-4.62453 0c-0.136252,0 -0.247736,-0.111484 -0.247736,-0.247736l0 -4.62453c0,-0.136252 0.111484,-0.247736 0.247736,-0.247736zm0.232264 0.533331l4.16 0 0 2.33484 -0.693331 0 0 0.859244 -0.533335 0 0 0.859248 -1.70667 0 0 -0.859248 -0.533335 0 0 -0.859244 -0.693331 0 0 -2.33484z"/>
   <rect id="_501801992" class="fil1" x="1.88809" y="1.81333" width="0.746665" height="1.28"/>
   <rect id="_501802472" class="fil1" x="3.04" y="1.81333" width="0.746665" height="1.28"/>
   <rect id="_501802448" class="fil1" x="4.19191" y="1.81333" width="0.746665" height="1.28"/>
  </g>
 </g>
</svg>
